HIERARCHY
ROOT mixamorig:Hips
{
	OFFSET 0.000000 201.639420 0.000000
	CHANNELS 6 Xposition Yposition Zposition Xrotation Yrotation Zrotation
	JOINT mixamorig:Spine
	{
		OFFSET 0.006200 19.524994 -2.481800
		CHANNELS 3 Xrotation Yrotation Zrotation
		JOINT mixamorig:Spine1
		{
			OFFSET -0.000900 22.835007 -2.825400
			CHANNELS 3 Xrotation Yrotation Zrotation
			JOINT mixamorig:Spine2
			{
				OFFSET -0.020600 26.552490 -3.193300
				CHANNELS 3 Xrotation Yrotation Zrotation
				JOINT mixamorig:Neck
				{
					OFFSET -0.060000 30.701813 1.352200
					CHANNELS 3 Xrotation Yrotation Zrotation
					JOINT mixamorig:Head
					{
						OFFSET -0.087200 22.547607 3.670900
						CHANNELS 3 Xrotation Yrotation Zrotation
						JOINT mixamorig:HeadTop_End
						{
							OFFSET -0.830600 40.355194 7.893500
							CHANNELS 3 Xrotation Yrotation Zrotation
							End Site
							{
								OFFSET 0.000000 30.592346 0.000000
							}
						}
						JOINT mixamorig:RightEye
						{
							OFFSET -6.302100 18.118591 16.197100
							CHANNELS 3 Xrotation Yrotation Zrotation
							End Site
							{
								OFFSET 0.000000 30.592346 0.000000
							}
						}
						JOINT mixamorig:LeftEye
						{
							OFFSET 6.741500 18.382690 16.401899
							CHANNELS 3 Xrotation Yrotation Zrotation
							End Site
							{
								OFFSET 0.000000 30.592346 0.000000
							}
						}
					}
				}
				JOINT mixamorig:LeftShoulder
				{
					OFFSET 11.924900 18.230499 1.425400
					CHANNELS 3 Xrotation Yrotation Zrotation
					JOINT mixamorig:LeftArm
					{
						OFFSET 25.435989 -0.697632 -5.229300
						CHANNELS 3 Xrotation Yrotation Zrotation
						JOINT mixamorig:LeftForeArm
						{
							OFFSET 54.684776 0.000000 0.000000
							CHANNELS 3 Xrotation Yrotation Zrotation
							JOINT mixamorig:LeftHand
							{
								OFFSET 55.098175 0.000000 0.000000
								CHANNELS 3 Xrotation Yrotation Zrotation
								JOINT mixamorig:LeftHandMiddle1
								{
									OFFSET 23.369751 0.000000 0.000000
									CHANNELS 3 Xrotation Yrotation Zrotation
									JOINT mixamorig:LeftHandMiddle2
									{
										OFFSET 6.378677 0.000000 0.000000
										CHANNELS 3 Xrotation Yrotation Zrotation
										JOINT mixamorig:LeftHandMiddle3
										{
											OFFSET 6.148331 0.000000 0.000000
											CHANNELS 3 Xrotation Yrotation Zrotation
											JOINT mixamorig:LeftHandMiddle4
											{
												OFFSET 6.582504 0.000000 0.000000
												CHANNELS 3 Xrotation Yrotation Zrotation
												End Site
												{
													OFFSET -1.168900 6.395691 1.028606
												}
											}
										}
									}
								}
								JOINT mixamorig:LeftHandThumb1
								{
									OFFSET 7.235672 -3.848206 5.434273
									CHANNELS 3 Xrotation Yrotation Zrotation
									JOINT mixamorig:LeftHandThumb2
									{
										OFFSET 6.568451 -3.792297 3.792300
										CHANNELS 3 Xrotation Yrotation Zrotation
										JOINT mixamorig:LeftHandThumb3
										{
											OFFSET 6.063080 -3.500519 3.500518
											CHANNELS 3 Xrotation Yrotation Zrotation
											JOINT mixamorig:LeftHandThumb4
											{
												OFFSET 4.793182 -2.767334 2.767349
												CHANNELS 3 Xrotation Yrotation Zrotation
												End Site
												{
													OFFSET 0.101639 6.054260 1.275483
												}
											}
										}
									}
								}
								JOINT mixamorig:LeftHandIndex1
								{
									OFFSET 23.101074 -0.309540 4.992809
									CHANNELS 3 Xrotation Yrotation Zrotation
									JOINT mixamorig:LeftHandIndex2
									{
										OFFSET 6.226883 0.000000 0.000000
										CHANNELS 3 Xrotation Yrotation Zrotation
										JOINT mixamorig:LeftHandIndex3
										{
											OFFSET 6.094330 0.000000 0.000000
											CHANNELS 3 Xrotation Yrotation Zrotation
											JOINT mixamorig:LeftHandIndex4
											{
												OFFSET 5.482605 0.000000 0.000000
												CHANNELS 3 Xrotation Yrotation Zrotation
												End Site
												{
													OFFSET -1.427902 5.233032 0.797164
												}
											}
										}
									}
								}
								JOINT mixamorig:LeftHandRing1
								{
									OFFSET 22.299240 0.021149 -3.964172
									CHANNELS 3 Xrotation Yrotation Zrotation
									JOINT mixamorig:LeftHandRing2
									{
										OFFSET 6.321869 0.000000 0.000000
										CHANNELS 3 Xrotation Yrotation Zrotation
										JOINT mixamorig:LeftHandRing3
										{
											OFFSET 5.899796 0.000000 0.000000
											CHANNELS 3 Xrotation Yrotation Zrotation
											JOINT mixamorig:LeftHandRing4
											{
												OFFSET 6.517899 0.000000 0.000000
												CHANNELS 3 Xrotation Yrotation Zrotation
												End Site
												{
													OFFSET -1.637299 6.232208 0.980890
												}
											}
										}
									}
								}
								JOINT mixamorig:LeftHandPinky1
								{
									OFFSET 20.463791 -0.302338 -8.562233
									CHANNELS 3 Xrotation Yrotation Zrotation
									JOINT mixamorig:LeftHandPinky2
									{
										OFFSET 6.908646 0.000000 0.000000
										CHANNELS 3 Xrotation Yrotation Zrotation
										JOINT mixamorig:LeftHandPinky3
										{
											OFFSET 4.622849 0.000000 0.000000
											CHANNELS 3 Xrotation Yrotation Zrotation
											JOINT mixamorig:LeftHandPinky4
											{
												OFFSET 5.216080 0.000000 0.000000
												CHANNELS 3 Xrotation Yrotation Zrotation
												End Site
												{
													OFFSET -0.606308 5.116241 0.814926
												}
											}
										}
									}
								}
							}
						}
					}
				}
				JOINT mixamorig:RightShoulder
				{
					OFFSET -12.001300 18.284088 1.348900
					CHANNELS 3 Xrotation Yrotation Zrotation
					JOINT mixamorig:RightArm
					{
						OFFSET -25.308500 -0.751312 -5.164599
						CHANNELS 3 Xrotation Yrotation Zrotation
						JOINT mixamorig:RightForeArm
						{
							OFFSET -54.684429 0.000000 0.000000
							CHANNELS 3 Xrotation Yrotation Zrotation
							JOINT mixamorig:RightHand
							{
								OFFSET -55.150291 0.000000 0.000000
								CHANNELS 3 Xrotation Yrotation Zrotation
								JOINT mixamorig:RightHandMiddle1
								{
									OFFSET -23.317566 0.000000 0.000000
									CHANNELS 3 Xrotation Yrotation Zrotation
									JOINT mixamorig:RightHandMiddle2
									{
										OFFSET -6.378403 0.000000 0.000000
										CHANNELS 3 Xrotation Yrotation Zrotation
										JOINT mixamorig:RightHandMiddle3
										{
											OFFSET -6.148193 0.000000 0.000000
											CHANNELS 3 Xrotation Yrotation Zrotation
											JOINT mixamorig:RightHandMiddle4
											{
												OFFSET -6.583389 0.000000 0.000000
												CHANNELS 3 Xrotation Yrotation Zrotation
												End Site
												{
													OFFSET 1.171692 6.395905 1.029786
												}
											}
										}
									}
								}
								JOINT mixamorig:RightHandThumb1
								{
									OFFSET -7.190521 -3.860474 5.435846
									CHANNELS 3 Xrotation Yrotation Zrotation
									JOINT mixamorig:RightHandThumb2
									{
										OFFSET -6.567429 -3.791718 3.791708
										CHANNELS 3 Xrotation Yrotation Zrotation
										JOINT mixamorig:RightHandThumb3
										{
											OFFSET -6.062469 -3.500153 3.500166
											CHANNELS 3 Xrotation Yrotation Zrotation
											JOINT mixamorig:RightHandThumb4
											{
												OFFSET -4.792618 -2.767029 2.767022
												CHANNELS 3 Xrotation Yrotation Zrotation
												End Site
												{
													OFFSET -0.100327 6.053253 1.276754
												}
											}
										}
									}
								}
								JOINT mixamorig:RightHandIndex1
								{
									OFFSET -23.048981 -0.310791 4.992554
									CHANNELS 3 Xrotation Yrotation Zrotation
									JOINT mixamorig:RightHandIndex2
									{
										OFFSET -6.227539 0.000000 0.000000
										CHANNELS 3 Xrotation Yrotation Zrotation
										JOINT mixamorig:RightHandIndex3
										{
											OFFSET -6.095047 0.000000 0.000000
											CHANNELS 3 Xrotation Yrotation Zrotation
											JOINT mixamorig:RightHandIndex4
											{
												OFFSET -5.484772 0.000000 0.000000
												CHANNELS 3 Xrotation Yrotation Zrotation
												End Site
												{
													OFFSET 1.420593 5.237305 0.797056
												}
											}
										}
									}
								}
								JOINT mixamorig:RightHandRing1
								{
									OFFSET -22.246323 0.020569 -3.963762
									CHANNELS 3 Xrotation Yrotation Zrotation
									JOINT mixamorig:RightHandRing2
									{
										OFFSET -6.322128 0.000000 0.000000
										CHANNELS 3 Xrotation Yrotation Zrotation
										JOINT mixamorig:RightHandRing3
										{
											OFFSET -5.900024 0.000000 0.000000
											CHANNELS 3 Xrotation Yrotation Zrotation
											JOINT mixamorig:RightHandRing4
											{
												OFFSET -6.518356 0.000000 0.000000
												CHANNELS 3 Xrotation Yrotation Zrotation
												End Site
												{
													OFFSET 1.636398 6.232697 0.982186
												}
											}
										}
									}
								}
								JOINT mixamorig:RightHandPinky1
								{
									OFFSET -20.411011 -0.303314 -8.561701
									CHANNELS 3 Xrotation Yrotation Zrotation
									JOINT mixamorig:RightHandPinky2
									{
										OFFSET -6.907349 0.000000 0.000000
										CHANNELS 3 Xrotation Yrotation Zrotation
										JOINT mixamorig:RightHandPinky3
										{
											OFFSET -4.623840 0.000000 0.000000
											CHANNELS 3 Xrotation Yrotation Zrotation
											JOINT mixamorig:RightHandPinky4
											{
												OFFSET -5.218353 0.000000 0.000000
												CHANNELS 3 Xrotation Yrotation Zrotation
												End Site
												{
													OFFSET 0.602097 5.118835 0.816273
												}
											}
										}
									}
								}
							}
						}
					}
				}
			}
		}
	}
	JOINT mixamorig:LeftUpLeg
	{
		OFFSET 18.168400 -13.561905 -0.039000
		CHANNELS 3 Xrotation Yrotation Zrotation
		JOINT mixamorig:LeftLeg
		{
			OFFSET 0.577358 -80.825211 -3.695000
			CHANNELS 3 Xrotation Yrotation Zrotation
			JOINT mixamorig:LeftFoot
			{
				OFFSET -0.577356 -83.370262 -6.520700
				CHANNELS 3 Xrotation Yrotation Zrotation
				JOINT mixamorig:LeftToeBase
				{
					OFFSET 0.750401 -20.798306 25.135401
					CHANNELS 3 Xrotation Yrotation Zrotation
					JOINT mixamorig:LeftToe_End
					{
						OFFSET -0.000500 0.001200 19.917799
						CHANNELS 3 Xrotation Yrotation Zrotation
						End Site
						{
							OFFSET 0.000000 19.917805 0.000000
						}
					}
				}
			}
		}
	}
	JOINT mixamorig:RightUpLeg
	{
		OFFSET -18.162500 -13.585098 -0.041000
		CHANNELS 3 Xrotation Yrotation Zrotation
		JOINT mixamorig:RightLeg
		{
			OFFSET -0.595024 -80.945297 -3.631900
			CHANNELS 3 Xrotation Yrotation Zrotation
			JOINT mixamorig:RightFoot
			{
				OFFSET 0.595024 -83.218193 -6.561200
				CHANNELS 3 Xrotation Yrotation Zrotation
				JOINT mixamorig:RightToeBase
				{
					OFFSET -0.753601 -20.807106 25.115000
					CHANNELS 3 Xrotation Yrotation Zrotation
					JOINT mixamorig:RightToe_End
					{
						OFFSET 0.000299 0.001700 19.918200
						CHANNELS 3 Xrotation Yrotation Zrotation
						End Site
						{
							OFFSET 0.000000 19.918203 0.000000
						}
					}
				}
			}
		}
	}
}
MOTION
Frames: 4
Frame Time: 0.033333
-2.757759 98.003082 -2.200611 -24.194232 47.754084 25.204412 12.904311 -1.511636 -1.658541 25.819191 -3.854526 -1.908978 25.819191 -3.854526 -1.908985 -4.618828 7.147557 -6.861975 -6.626326 11.104530 -5.527763 -0.000001 0.000000 0.000000 -0.000001 0.000000 0.000000 -0.000001 0.000000 0.000000 -4.423471 -12.780092 -13.186002 -27.572538 -39.486936 -26.475497 -0.892453 -62.621401 -1.121044 -101.997797 -22.194695 22.626791 -16.393192 34.357200 -47.894632 -8.285282 -10.051301 -42.755321 -0.000002 -0.000008 0.000005 -0.000000 -0.000001 0.000004 -21.546913 11.009712 -36.384117 12.385245 26.224566 1.155196 -0.000003 0.000006 -0.000005 -0.000002 0.000001 0.000001 4.732180 -34.263384 15.323118 0.782549 -17.100837 -0.000005 -0.000003 -0.000000 -0.000002 -0.000003 -0.000001 -0.000001 -20.754703 47.210718 -58.342704 -17.137484 -8.512969 -41.112551 0.000001 0.000006 -0.000001 -0.000003 0.000000 -0.000005 -30.804379 44.837948 -73.191269 -0.508865 -5.452572 -22.578891 0.000000 -0.000006 0.000001 -0.000003 0.000001 0.000002 -3.824147 14.687811 0.627793 -37.414875 12.240937 58.395221 -2.792455 84.032063 2.838242 -54.038585 8.497589 -15.455525 -16.527099 -3.409386 90.865879 -2.297663 2.680734 73.091876 -0.000001 0.000000 0.000001 -0.000001 -0.000001 0.000002 -9.256014 2.325845 -13.998014 1.320211 -4.674207 -2.075201 0.000004 -0.000004 0.000004 -0.000001 -0.000001 -0.000004 -10.114207 -10.376969 104.927729 1.410906 -2.358028 76.726568 0.000002 -0.000000 -0.000002 0.000003 -0.000001 0.000000 -21.011294 -3.926539 78.302463 -4.612634 6.147286 78.015855 -0.000011 -0.000000 -0.000009 0.000001 -0.000000 0.000000 -22.493292 -3.604958 80.123740 -9.171066 14.205468 50.030842 0.000002 0.000003 0.000013 0.000000 0.000003 0.000000 -85.671718 9.908228 18.546113 129.669311 -3.736461 -3.228083 -29.643520 -8.428033 17.620954 5.176335 -2.554132 2.529353 -0.000000 -0.000002 0.000000 -44.797271 22.202814 -5.990010 148.950580 2.438235 2.951479 -11.414370 24.069571 1.961758 -52.221359 12.774631 -5.590715 0.000001 0.000002 -0.000000 
-2.992729 98.693665 -2.436916 -24.827960 47.655162 25.762068 12.833546 -1.502516 -1.600284 25.679087 -3.836955 -1.804434 25.679064 -3.836968 -1.804421 -6.572022 7.105463 -6.824477 -7.158708 11.128567 -5.582860 0.000002 0.000002 -0.000001 0.000002 0.000002 -0.000001 0.000002 0.000002 -0.000001 -4.857600 -12.152296 -13.340813 -26.453007 -38.462602 -25.921922 -0.867107 -62.398102 -1.105727 -96.074124 -18.822111 24.540173 -14.755432 34.583071 -41.863097 -8.830145 -8.751800 -39.305994 -0.000002 -0.000007 0.000006 -0.000002 0.000000 -0.000004 -21.546904 11.009723 -36.384121 12.385262 26.224545 1.155196 -0.000002 0.000006 -0.000005 -0.000005 -0.000000 0.000000 2.494352 -27.877390 10.418052 0.382404 -14.338922 -0.000009 -0.000003 -0.000001 -0.000002 -0.000003 0.000000 -0.000002 -18.779358 47.259643 -52.315919 -17.657204 -7.235738 -37.663903 0.000001 0.000008 -0.000003 -0.000003 0.000001 0.000002 -26.796330 53.344314 -64.459398 -1.441801 -4.352780 -19.130202 -0.000001 -0.000004 0.000000 -0.000001 0.000000 -0.000002 -3.899241 14.868308 0.768783 -37.640408 13.013822 58.234398 -2.146993 82.217528 2.204886 -53.553341 7.694931 -14.704175 -9.198652 -0.347680 63.990294 -1.987422 2.727861 63.638846 0.000003 -0.000004 0.000001 0.000001 -0.000004 0.000001 -10.311525 2.323842 -14.573853 0.692191 -4.698241 -1.814931 0.000004 -0.000002 0.000003 -0.000001 0.000000 0.000002 -9.798932 -4.490793 69.850473 1.118217 -2.148604 66.392738 -0.000002 -0.000001 0.000001 -0.000000 -0.000001 0.000000 -8.307762 -1.716995 55.503671 -4.153987 5.948828 72.587815 -0.000009 0.000001 -0.000008 -0.000001 0.000001 0.000000 -10.807458 0.000059 62.341650 -5.864806 11.050486 49.901444 -0.000000 0.000005 0.000010 0.000000 -0.000005 0.000002 -84.809551 10.285116 18.695343 129.078718 -3.725553 -3.231126 -29.515310 -8.778164 17.806066 5.176288 -2.554081 2.529349 -0.000000 -0.000004 0.000000 -43.538102 22.149306 -6.273727 148.507806 2.356881 2.952990 -13.559171 24.072981 2.756817 -50.368154 13.510959 -5.662010 0.000001 -0.000002 0.000001 
-3.593681 99.269653 -2.737288 -25.131324 47.811898 26.084713 12.749006 -1.475105 -1.588077 25.509131 -3.788878 -1.802999 25.509133 -3.788866 -1.803005 -8.715797 6.949560 -6.732348 -7.754667 11.061663 -5.550487 -0.000001 0.000001 0.000000 -0.000001 0.000001 0.000000 -0.000001 0.000001 0.000000 -6.034450 -11.670449 -13.605043 -23.390287 -36.751978 -25.120351 -1.024242 -66.179328 -1.241175 -89.606358 -17.512448 30.513126 -12.297396 36.710720 -30.810328 -10.281603 -6.648896 -32.875548 0.000000 -0.000010 0.000006 -0.000000 0.000000 -0.000002 -21.546904 11.009711 -36.384107 12.385261 26.224532 1.155195 -0.000005 0.000005 -0.000005 -0.000002 -0.000001 0.000001 1.594139 -15.924448 1.879648 0.693842 -10.359613 -6.416263 -0.000002 0.000000 -0.000001 -0.000003 -0.000001 0.000001 -15.788431 49.099010 -40.947930 -19.145196 -5.150317 -31.203029 0.000003 0.000009 0.000001 0.000001 -0.000001 -0.000001 -27.143556 49.270188 -42.257892 -3.446913 -2.652302 -12.663699 -0.000002 -0.000007 0.000003 0.000001 -0.000001 -0.000000 -4.114950 15.348041 1.132931 -37.291665 14.103501 57.578399 -1.814061 81.040283 1.882544 -52.323159 6.095822 -20.222942 -3.491376 -3.986842 28.910002 -1.431885 2.629920 50.756942 -0.000001 -0.000006 -0.000000 -0.000002 0.000003 -0.000002 -11.575122 2.346642 -15.251502 -0.053022 -4.730052 -1.501846 0.000001 -0.000001 0.000001 -0.000001 0.000005 -0.000002 -8.891276 -0.537144 25.015204 0.791566 -1.823053 52.806955 -0.000004 0.000000 -0.000000 -0.000000 -0.000002 -0.000002 1.971637 -8.984879 25.494115 -3.446781 5.579376 64.145626 -0.000011 0.000001 -0.000010 -0.000000 0.000004 0.000002 2.094001 -3.461330 38.085254 -2.610339 7.898247 50.049328 0.000002 0.000004 0.000018 0.000000 0.000004 0.000001 -84.609959 10.728330 19.313376 128.407748 -3.718493 -3.235240 -28.911156 -9.613145 18.252311 5.176234 -2.554029 2.529358 -0.000001 -0.000001 -0.000000 -42.803628 21.907688 -6.582719 148.229107 2.268828 2.950318 -16.121449 23.953702 3.643397 -47.791254 14.540470 -5.778216 -0.000001 0.000001 0.000000 
-4.463799 99.679260 -2.941658 -24.927658 48.248846 25.974969 12.652856 -1.426835 -1.630244 25.313485 -3.702659 -1.920811 25.313490 -3.702663 -1.920810 -10.612926 6.693700 -6.592496 -8.168808 10.900788 -5.431142 -0.000001 0.000001 0.000001 -0.000001 0.000001 0.000001 -0.000001 0.000001 0.000001 -7.861665 -11.338847 -13.972521 -19.651759 -36.049219 -24.613678 -1.095830 -68.193039 -1.306019 -84.846427 -18.238827 34.920414 -11.515141 38.686553 -24.884319 -11.275736 -5.711479 -29.392087 -0.000003 -0.000006 0.000007 -0.000000 -0.000000 0.000002 -21.546897 11.009689 -36.384107 12.385235 26.224580 1.155185 -0.000007 0.000004 -0.000006 -0.000001 0.000001 0.000001 2.661367 -9.699828 -2.811471 1.343783 -8.458817 -11.167219 -0.000001 -0.000004 0.000003 -0.000003 -0.000002 0.000000 -14.806715 50.960885 -34.617875 -20.205113 -4.218191 -27.688357 0.000003 0.000006 -0.000002 -0.000002 -0.000001 -0.000000 -26.519967 47.310118 -28.832465 -4.651772 -1.936648 -9.148886 -0.000001 -0.000007 0.000003 -0.000002 -0.000001 0.000001 -4.297960 15.241024 2.377254 -36.410209 15.734270 55.886715 -2.785020 83.756390 2.833386 -50.432382 -2.662388 -27.135027 -4.097844 -4.197895 14.643808 -0.904568 2.201254 40.305066 0.000002 -0.000007 0.000001 0.000000 0.000000 -0.000000 -13.004147 2.404675 -16.002279 -0.887587 -4.770085 -1.145768 0.000004 -0.000004 -0.000000 -0.000002 0.000007 -0.000000 -8.957793 2.216784 9.376141 0.554399 -1.545147 42.218099 -0.000001 -0.000002 0.000000 -0.000001 0.000000 -0.000001 1.762324 -10.560387 11.743863 -2.631011 5.052413 54.479071 -0.000010 -0.000001 -0.000006 -0.000002 0.000000 0.000001 4.398508 -5.623480 25.800896 -2.187482 7.227541 44.867636 0.000002 0.000003 0.000014 0.000000 0.000001 -0.000002 -85.169536 11.101650 20.445145 127.769535 -3.718857 -3.239932 -27.949949 -10.947847 18.897508 5.176202 -2.554016 2.529355 -0.000000 -0.000002 -0.000001 -42.839254 21.316001 -6.822463 148.124277 2.216869 2.946494 -18.501181 23.610046 4.278661 -45.196410 15.674850 -5.913576 -0.000001 0.000000 0.000000 
